<svg width="180" height="180" viewBox="0 0 180 180" fill="none" xmlns="http://www.w3.org/2000/svg">
<path d="M16.0507 87.2845C15.2075 87.6918 15.1214 88.8591 15.8957 89.3857L30.6559 99.423C31.4302 99.9495 32.4842 99.4404 32.5531 98.5065L33.8657 80.7054C33.9345 79.7715 32.9666 79.1133 32.1234 79.5206L16.0507 87.2845Z" fill="#E6E6E9"/>
<path fill-rule="evenodd" clip-rule="evenodd" d="M30.9979 98.92L16.2378 88.8827C15.8506 88.6195 15.8936 88.0358 16.3152 87.8321L32.388 80.0682C32.8096 79.8646 33.2935 80.1937 33.2591 80.6606L31.9465 98.4618C31.9121 98.9287 31.3851 99.1833 30.9979 98.92ZM15.8957 89.3857C15.1214 88.8591 15.2075 87.6918 16.0507 87.2845L32.1234 79.5206C32.9666 79.1133 33.9345 79.7715 33.8657 80.7054L32.5531 98.5065C32.4842 99.4404 31.4302 99.9495 30.6559 99.423L15.8957 89.3857Z" fill="#9DA0A4"/>
<path d="M93.7712 42.7812C93.4401 43.6571 94.1814 44.563 95.1055 44.4118L109.77 42.0124C110.694 41.8612 111.108 40.7663 110.515 40.0416L101.105 28.5418C100.512 27.8171 99.3566 28.0061 99.0255 28.882L93.7712 42.7812Z" fill="#E6E6E9"/>
<path fill-rule="evenodd" clip-rule="evenodd" d="M109.672 41.4122L95.0073 43.8115C94.5452 43.8871 94.1746 43.4342 94.3402 42.9962L99.5944 29.0971C99.76 28.6591 100.338 28.5646 100.634 28.927L110.044 40.4268C110.341 40.7892 110.134 41.3366 109.672 41.4122ZM95.1055 44.4118C94.1814 44.563 93.4401 43.6571 93.7712 42.7812L99.0255 28.882C99.3566 28.0061 100.512 27.8171 101.105 28.5418L110.515 40.0416C111.108 40.7663 110.694 41.8612 109.77 42.0124L95.1055 44.4118Z" fill="#9DA0A4"/>
<path d="M38.7676 42.6545C39.4635 43.281 40.5767 42.9192 40.7714 42.0033L42.7672 32.6107C42.9618 31.6947 42.0919 30.9116 41.2013 31.201L32.0692 34.1689C31.1786 34.4583 30.9353 35.6033 31.6312 36.2298L38.7676 42.6545Z" fill="#E6E6E9"/>
<path fill-rule="evenodd" clip-rule="evenodd" d="M42.1722 32.4843L40.1764 41.8769C40.0791 42.3348 39.5225 42.5157 39.1745 42.2025L32.0382 35.7778C31.6902 35.4645 31.8119 34.8921 32.2571 34.7473L41.3893 31.7795C41.8346 31.6347 42.2695 32.0263 42.1722 32.4843ZM40.7714 42.0033C40.5767 42.9192 39.4635 43.281 38.7676 42.6545L31.6312 36.2298C30.9353 35.6033 31.1786 34.4583 32.0692 34.1689L41.2013 31.201C42.0919 30.9116 42.9618 31.6947 42.7672 32.6107L40.7714 42.0033Z" fill="#9DA0A4"/>
<path fill-rule="evenodd" clip-rule="evenodd" d="M55.7895 0L51.4887 7.28997L51.6575 7.45661C52.5331 8.32065 53.7509 9.78233 54.5546 11.348C55.368 12.9325 55.7057 14.5186 55.0101 15.7138C54.5342 16.5318 54.1279 17.0281 53.7672 17.3669C53.4193 17.6937 53.1053 17.8829 52.7759 18.0813C52.7638 18.0886 52.7517 18.0959 52.7396 18.1032C52.3952 18.3108 52.0343 18.5333 51.6561 18.9269C51.2794 19.3189 50.8967 19.8681 50.4771 20.7225C50.1005 21.4891 50.1481 22.4665 50.4167 23.4928C50.6877 24.528 51.1974 25.6658 51.815 26.7931C53.0507 29.049 54.7452 31.3109 55.9296 32.7067L56.0967 32.9036L61.3076 29.7731L61.0403 29.498C60.4587 28.8992 59.5515 27.7991 58.7404 26.4627C57.9278 25.1236 57.2259 23.5705 57.0289 22.0616C56.912 21.166 57.1415 20.5169 57.558 19.9546C57.9637 19.4068 58.5435 18.9432 59.1969 18.4208C59.2369 18.3888 59.2772 18.3566 59.3178 18.3241C60.706 17.2124 62.2903 15.8759 62.4674 13.1442C62.608 10.9749 61.5406 8.37316 60.1991 6.04008C58.8498 3.69365 57.1884 1.56038 56.0668 0.309283L55.7895 0ZM59.6718 6.34326C61.0042 8.66046 61.9887 11.1269 61.8605 13.1049C61.7015 15.5574 60.3117 16.7489 58.9376 17.8493C58.8913 17.8865 58.8448 17.9236 58.7983 17.9607C58.1642 18.4672 57.5242 18.9783 57.0693 19.5926C56.5669 20.2708 56.2868 21.0759 56.4258 22.1403C56.6383 23.7677 57.3866 25.4042 58.2205 26.7782C58.9445 27.9712 59.7437 28.9837 60.3428 29.6431L56.2272 32.1156C55.0724 30.731 53.5025 28.6077 52.3484 26.5009C51.7428 25.3954 51.2584 24.3065 51.0051 23.3388C50.7496 22.3623 50.7429 21.5609 51.023 20.9906C51.4241 20.1739 51.7737 19.6822 52.0946 19.3483C52.4139 19.0161 52.716 18.8276 53.0537 18.624C53.0683 18.6152 53.083 18.6063 53.0979 18.5974C53.4257 18.4 53.7878 18.182 54.1836 17.8103C54.597 17.4219 55.0379 16.8755 55.5358 16.0197C56.3986 14.537 55.927 12.6897 55.0957 11.0702C54.3054 9.53074 53.143 8.10213 52.2525 7.19222L55.8892 1.0279C56.9734 2.27966 58.4537 4.22495 59.6718 6.34326Z" fill="#9DA0A4"/>
<path fill-rule="evenodd" clip-rule="evenodd" d="M96.7577 6.56523L91.6167 9.13081L91.6247 9.32747C91.6494 9.93016 91.5791 10.8972 91.2891 11.8157C90.9974 12.7397 90.5014 13.56 89.7149 13.9569C89.1709 14.2314 88.7922 14.3686 88.5006 14.4421C88.2208 14.5126 88.0123 14.5271 87.7876 14.5427C87.7794 14.5433 87.7713 14.5438 87.7631 14.5444C87.5245 14.561 87.2679 14.5812 86.9329 14.6802C86.6014 14.7781 86.2046 14.9495 85.6677 15.2561C85.1802 15.5345 84.7911 16.0178 84.4791 16.5799C84.165 17.1456 83.9146 17.8173 83.7169 18.5071C83.3215 19.8865 83.1257 21.3777 83.0658 22.3333L83.0441 22.6794L86.8674 22.4182L86.8629 22.1297C86.8498 21.2941 87.0969 19.2301 88.1618 17.7141C88.7649 16.8557 89.5604 16.7088 90.6056 16.5158C90.6279 16.5117 90.6503 16.5075 90.6728 16.5034C91.745 16.305 92.9974 16.0456 94.2102 14.7811C95.1783 13.7717 95.7932 12.2622 96.1742 10.8203C96.5571 9.37129 96.7144 7.94861 96.7417 7.07426L96.7577 6.56523ZM95.5862 10.6649C95.2143 12.0723 94.6325 13.4621 93.7712 14.3601C92.6973 15.4798 91.6084 15.7118 90.5621 15.9053C90.5207 15.913 90.4792 15.9206 90.4377 15.9282C89.4366 16.1118 88.4122 16.2996 87.6641 17.3645C86.6072 18.8692 86.2971 20.8234 86.2585 21.8501L83.6988 22.025C83.7781 21.1099 83.9658 19.8462 84.3016 18.6747C84.4919 18.0109 84.7269 17.3866 85.0109 16.8751C85.2969 16.3599 85.6184 15.9846 85.9693 15.7843C86.4804 15.4924 86.8328 15.344 87.1053 15.2634C87.3743 15.184 87.5767 15.1671 87.8054 15.1511C87.8155 15.1504 87.8257 15.1497 87.8359 15.149C88.0616 15.1334 88.3162 15.1158 88.6492 15.0319C88.9956 14.9446 89.417 14.7885 89.9889 14.4999C90.9878 13.9959 91.556 12.9907 91.8691 11.9989C92.1541 11.0964 92.2429 10.1597 92.2372 9.50086L96.1059 7.57026C96.0441 8.39849 95.8877 9.52386 95.5862 10.6649Z" fill="#9DA0A4"/>
<path fill-rule="evenodd" clip-rule="evenodd" d="M41.8068 104.465L36.2335 103.068L36.1117 103.223C35.7383 103.697 35.0556 104.385 34.2378 104.894C33.415 105.406 32.5046 105.706 31.6491 105.496C31.0575 105.35 30.6806 105.208 30.4113 105.074C30.153 104.945 29.9852 104.821 29.8044 104.686C29.7979 104.681 29.7913 104.677 29.7848 104.672C29.5927 104.529 29.3848 104.377 29.066 104.235C28.7505 104.093 28.3377 103.965 27.7305 103.849C27.1792 103.743 26.5693 103.857 25.9666 104.08C25.3599 104.306 24.7328 104.653 24.1338 105.048C22.9359 105.838 21.8169 106.843 21.1496 107.53L20.908 107.778L23.9811 110.068L24.1654 109.846C24.6992 109.203 26.2299 107.796 28.025 107.338C29.0415 107.079 29.7411 107.485 30.6604 108.018C30.68 108.03 30.6997 108.041 30.7195 108.052C31.6627 108.6 32.7825 109.217 34.5263 109.046C35.9182 108.91 37.3674 108.164 38.5949 107.317C39.8285 106.466 40.8737 105.488 41.4634 104.842L41.8068 104.465ZM38.2495 106.816C37.0513 107.643 35.7052 108.32 34.4669 108.441C32.9229 108.593 31.945 108.06 31.0246 107.526C30.9882 107.505 30.9517 107.484 30.9152 107.463C30.0356 106.951 29.1355 106.427 27.8745 106.749C26.0929 107.204 24.5858 108.486 23.8884 109.24L21.8309 107.707C22.4866 107.064 23.4514 106.227 24.4687 105.556C25.0451 105.175 25.6298 104.854 26.1783 104.651C26.7307 104.445 27.2191 104.37 27.6159 104.446C28.1938 104.557 28.5581 104.673 28.8174 104.79C29.0734 104.904 29.238 105.023 29.4221 105.16C29.4302 105.166 29.4384 105.172 29.4466 105.178C29.6281 105.313 29.8329 105.465 30.1404 105.618C30.4602 105.777 30.8818 105.933 31.5038 106.086C32.5903 106.353 33.6758 105.96 34.559 105.41C35.3626 104.911 36.0396 104.257 36.464 103.753L40.6578 104.804C40.072 105.393 39.2209 106.146 38.2495 106.816Z" fill="#9DA0A4"/>
<path fill-rule="evenodd" clip-rule="evenodd" d="M153.576 105.468L143.18 94.8508C142.852 94.5162 143.01 93.9525 143.463 93.8361L157.856 90.1416C158.309 90.0252 158.719 90.4433 158.593 90.8943L154.596 105.206C154.47 105.657 153.903 105.802 153.576 105.468ZM142.745 95.2763C142.09 94.6072 142.405 93.4798 143.312 93.247L157.705 89.5525C158.612 89.3196 159.431 90.156 159.179 91.0579L155.182 105.369C154.93 106.271 153.796 106.562 153.141 105.893L142.745 95.2763Z" fill="#9DA0A4"/>
<path fill-rule="evenodd" clip-rule="evenodd" d="M179.999 56.532L172.322 52.9675L172.173 53.1519C171.399 54.108 170.064 55.4634 168.585 56.4169C167.088 57.3818 165.542 57.8735 164.285 57.2987C163.424 56.9053 162.89 56.5498 162.517 56.224C162.158 55.9099 161.939 55.6159 161.709 55.3077C161.701 55.2963 161.692 55.285 161.684 55.2737C161.443 54.9513 161.187 54.614 160.758 54.2762C160.331 53.9398 159.747 53.6129 158.855 53.2792C158.055 52.9797 157.087 53.123 156.092 53.491C155.089 53.8622 154.006 54.4812 152.945 55.2064C150.821 56.6576 148.737 58.5659 147.464 59.8816L147.284 60.0672L150.911 64.9456L151.159 64.6526C151.697 64.015 152.703 63.0042 153.954 62.0659C155.206 61.1258 156.683 60.2749 158.165 59.9307C159.045 59.7265 159.714 59.8912 160.314 60.2505C160.899 60.6005 161.418 61.132 162.002 61.7309C162.037 61.7676 162.073 61.8045 162.11 61.8417C163.352 63.114 164.838 64.5596 167.574 64.4677C169.746 64.3947 172.231 63.0771 174.421 61.513C176.624 59.94 178.584 58.0773 179.719 56.8383L179.999 56.532ZM174.067 61.0181C171.892 62.5715 169.534 63.7933 167.553 63.8598C165.097 63.9423 163.775 62.6762 162.545 61.4168C162.503 61.3743 162.462 61.3317 162.42 61.2891C161.854 60.7077 161.283 60.121 160.627 59.7286C159.902 59.2952 159.074 59.0955 158.028 59.3383C156.429 59.7094 154.874 60.6148 153.589 61.5795C152.472 62.4171 151.543 63.3118 150.946 63.9727L148.081 60.1197C149.346 58.8347 151.305 57.0639 153.288 55.7086C154.329 54.9974 155.365 54.4085 156.303 54.0615C157.25 53.7113 158.047 53.626 158.642 53.8488C159.494 54.1678 160.018 54.4675 160.381 54.754C160.743 55.0392 160.961 55.3213 161.196 55.6373C161.207 55.6511 161.217 55.6648 161.227 55.6787C161.456 55.9856 161.708 56.3246 162.117 56.6819C162.544 57.0552 163.131 57.4403 164.032 57.8519C165.592 58.565 167.384 57.9143 168.914 56.9281C170.369 55.9905 171.676 54.6935 172.494 53.718L178.986 56.7321C177.847 57.9339 176.056 59.598 174.067 61.0181Z" fill="#9DA0A4"/>
<path fill-rule="evenodd" clip-rule="evenodd" d="M176.307 83.3943L172.833 78.8174L172.642 78.8618C172.054 78.9976 171.09 79.1077 170.134 78.9928C169.172 78.8773 168.274 78.5418 167.738 77.8424C167.368 77.3587 167.163 77.0119 167.037 76.739C166.916 76.4771 166.863 76.2749 166.806 76.0569C166.804 76.0491 166.802 76.0411 166.8 76.0332C166.739 75.8018 166.672 75.5534 166.512 75.2426C166.355 74.9349 166.113 74.5767 165.712 74.1059C165.348 73.6784 164.801 73.3856 164.191 73.183C163.577 72.9792 162.87 72.8575 162.156 72.791C160.727 72.6579 159.226 72.7416 158.275 72.8597L157.931 72.9025L158.896 76.6113L159.179 76.5534C159.997 76.3858 162.071 76.2464 163.758 77.0121C164.714 77.4457 165.005 78.2002 165.389 79.1916C165.397 79.2128 165.405 79.234 165.413 79.2553C165.807 80.2723 166.294 81.4549 167.761 82.4125C168.932 83.1769 170.53 83.5017 172.017 83.609C173.512 83.7169 174.939 83.6079 175.803 83.4729L176.307 83.3943ZM172.061 83.0023C170.609 82.8976 169.135 82.5832 168.093 81.9032C166.794 81.0553 166.365 80.0281 165.981 79.0358C165.965 78.9965 165.95 78.9572 165.935 78.9178C165.569 77.968 165.195 76.9961 164.01 76.4583C162.335 75.6983 160.358 75.7555 159.342 75.9077L158.696 73.4247C159.61 73.3331 160.886 73.2835 162.1 73.3966C162.787 73.4606 163.444 73.576 163.999 73.7603C164.559 73.9459 164.987 74.1924 165.249 74.5001C165.63 74.9483 165.842 75.2671 165.971 75.5199C166.099 75.7696 166.153 75.9653 166.211 76.1872C166.214 76.197 166.216 76.2068 166.219 76.2168C166.276 76.4356 166.34 76.6826 166.485 76.9943C166.635 77.3185 166.866 77.7036 167.256 78.2122C167.936 79.1004 169.029 79.4727 170.062 79.5967C171.001 79.7096 171.938 79.6234 172.585 79.4958L175.198 82.9399C174.373 83.0326 173.238 83.0873 172.061 83.0023Z" fill="#9DA0A4"/>
<path d="M5.5259 40.6928C5.02441 40.3835 4.42011 40.8966 4.64402 41.4416L8.87617 51.7426C8.97631 51.9863 8.90811 52.2668 8.70726 52.4374L0.218141 59.6455C-0.230987 60.0269 0.0702777 60.7601 0.657789 60.7156L11.7625 59.8738C12.0253 59.8539 12.2709 60.0054 12.3711 60.2491L16.6032 70.5501C16.8271 71.0951 17.6176 71.0352 17.7568 70.4627L20.3878 59.6414C20.45 59.3854 20.6701 59.1986 20.9328 59.1787L32.0375 58.3369C32.625 58.2923 32.8123 57.522 32.3108 57.2127L22.8321 51.3666C22.6079 51.2283 22.4982 50.9613 22.5604 50.7053L25.1914 39.884C25.3306 39.3115 24.6558 38.8954 24.2067 39.2767L15.7176 46.4849C15.5167 46.6554 15.2289 46.6772 15.0046 46.5389L5.5259 40.6928Z" fill="#BFCBF7"/>
<path d="M13.7635 123.677C13.7635 120.78 11.4148 118.431 8.51756 118.431C5.62033 118.431 3.27167 120.78 3.27167 123.677C3.27167 126.574 5.62033 128.923 8.51756 128.923V131.66C4.10873 131.66 0.53468 128.086 0.53468 123.677C0.53468 119.268 4.10873 115.694 8.51756 115.694C12.9264 115.694 16.5004 119.268 16.5004 123.677C16.5004 128.086 12.9264 131.66 8.51756 131.66V128.923C11.4148 128.923 13.7635 126.574 13.7635 123.677Z" fill="#BFCBF7"/>
<path d="M143.785 39.6088C143.785 36.7116 141.436 34.3629 138.539 34.3629C135.642 34.3629 133.293 36.7116 133.293 39.6088C133.293 42.506 135.642 44.8546 138.539 44.8546V47.5916C134.13 47.5916 130.556 44.0175 130.556 39.6088C130.556 35.2 134.13 31.626 138.539 31.626C142.948 31.626 146.522 35.2 146.522 39.6088C146.522 44.0175 142.948 47.5916 138.539 47.5916V44.8546C141.436 44.8546 143.785 42.506 143.785 39.6088Z" fill="#BFCBF7"/>
<path d="M123.014 168.611C122.425 168.613 122.184 169.368 122.662 169.713L126.346 172.365C126.56 172.519 126.65 172.793 126.57 173.044L125.185 177.368C125.005 177.929 125.649 178.392 126.124 178.044L129.785 175.36C129.998 175.204 130.286 175.203 130.5 175.357L134.184 178.009C134.662 178.354 135.302 177.885 135.117 177.325L133.696 173.014C133.614 172.764 133.702 172.489 133.914 172.333L137.575 169.649C138.051 169.301 137.802 168.548 137.213 168.55L132.674 168.57C132.41 168.571 132.176 168.402 132.093 168.152L130.672 163.84C130.488 163.281 129.695 163.284 129.515 163.845L128.131 168.169C128.05 168.42 127.818 168.59 127.554 168.592L123.014 168.611Z" fill="#BFCBF7"/>
<path d="M146.964 118.588C146.889 118.098 146.23 117.99 146.003 118.431L138.767 132.483C138.665 132.68 138.448 132.789 138.229 132.754L122.629 130.213C122.14 130.134 121.834 130.727 122.183 131.079L133.311 142.303C133.467 142.461 133.504 142.701 133.403 142.898L126.166 156.95C125.939 157.39 126.408 157.864 126.851 157.641L140.965 150.527C141.163 150.427 141.403 150.466 141.559 150.623L152.687 161.848C153.036 162.2 153.632 161.9 153.556 161.41L151.151 145.788C151.118 145.569 151.229 145.353 151.427 145.253L165.541 138.139C165.984 137.916 165.882 137.257 165.393 137.177L149.792 134.636C149.574 134.601 149.403 134.428 149.369 134.209L146.964 118.588Z" fill="#BFCBF7"/>
<path d="M74.2253 45.6031L144.859 66.4914L117.349 159.513C115.872 164.505 110.628 167.356 105.635 165.879L44.0422 147.665L74.2253 45.6031Z" fill="#333333"/>
<path d="M70.7863 40.8086L143.57 62.3328L113.387 164.394L40.6032 142.87L70.7863 40.8086Z" fill="#333333"/>
<path d="M67.2681 36.89L141.375 58.8056L111.192 160.867L37.085 138.952L67.2681 36.89Z" fill="#333333"/>
<path d="M66.611 33.6377L138.899 55.0152L109.107 155.753L36.8192 134.376L66.611 33.6377Z" fill="#333333"/>
<path d="M61.3575 38.0203L133.868 59.4638L103.685 161.525L31.1744 140.082L61.3575 38.0203Z" fill="#333333"/>
<path d="M56.4327 40.3413L137.01 64.1702L106.591 167.027L34.763 145.786C29.9312 144.357 27.1726 139.281 28.6015 134.45L56.4327 40.3413Z" fill="#333333"/>
<path d="M128.669 61.7035L144.859 66.4914L116.812 161.329C115.515 165.714 110.909 168.218 106.524 166.921C102.138 165.624 99.3249 160.926 100.622 156.541L128.669 61.7035Z" fill="#333333"/>
<path d="M135.978 63.908L139.256 65.0332L140.418 61.6888L143.243 62.4958L142.255 65.8407L144.535 66.6009L116.556 160.824C116.127 162.27 115.328 163.58 114.24 164.625C113.637 165.204 112.817 165.5 111.984 165.44L110.089 165.303C109.332 165.249 108.644 164.847 108.225 164.215C107.75 163.499 107.562 162.631 107.696 161.782L108.444 157.059L135.978 63.908Z" fill="#333333"/>
<path d="M133.645 59.3977L143.57 62.3328L114.854 159.432C114.044 162.173 111.165 163.737 108.424 162.927C105.684 162.116 104.119 159.237 104.929 156.497L133.645 59.3977Z" fill="#333333"/>
<path d="M137.71 57.6845L141.334 58.756L112.295 156.948C111.999 157.948 110.948 158.519 109.947 158.223C108.947 157.928 108.376 156.877 108.672 155.876L137.71 57.6845Z" fill="#333333"/>
<path d="M74.2253 45.6031L144.859 66.4914L117.349 159.513C115.872 164.505 110.628 167.356 105.635 165.879L44.0422 147.665L74.2253 45.6031Z" fill="white"/>
<path fill-rule="evenodd" clip-rule="evenodd" d="M143.878 67.6631L74.4111 47.1198L44.798 147.254L105.808 165.296C110.478 166.677 115.385 164.011 116.766 159.34L143.878 67.6631ZM74.2253 45.6031L44.0422 147.665L105.635 165.879C110.628 167.356 115.872 164.505 117.349 159.513L144.859 66.4914L74.2253 45.6031Z" fill="#333333"/>
<path d="M70.7863 40.8086L143.57 62.3328L113.387 164.394L40.6032 142.87L70.7863 40.8086Z" fill="white"/>
<path fill-rule="evenodd" clip-rule="evenodd" d="M142.814 62.7436L71.1972 41.5644L41.359 142.46L112.976 163.639L142.814 62.7436ZM70.7863 40.8086L40.6032 142.87L113.387 164.394L143.57 62.3328L70.7863 40.8086Z" fill="#333333"/>
<path d="M67.2681 36.89L141.375 58.8056L111.192 160.867L37.085 138.952L67.2681 36.89Z" fill="white"/>
<path fill-rule="evenodd" clip-rule="evenodd" d="M140.62 59.2164L67.679 37.6458L37.8408 138.541L110.781 160.111L140.62 59.2164ZM67.2681 36.89L37.085 138.952L111.192 160.867L141.375 58.8056L67.2681 36.89Z" fill="#333333"/>
<path d="M66.611 33.6377L139.141 55.0772L109.335 155.967L36.8083 134.408L66.611 33.6377Z" fill="white"/>
<path fill-rule="evenodd" clip-rule="evenodd" d="M67.3481 34.7051L37.5638 133.998L108.924 155.211L138.363 55.5178L67.3481 34.7051ZM139.141 55.0772L66.611 33.6377L36.8083 134.408L109.335 155.967L139.141 55.0772Z" fill="#333333"/>
<path d="M61.3575 38.0203L134.272 59.4638L104.088 161.525L31.1744 140.082L61.3575 38.0203Z" fill="white"/>
<path fill-rule="evenodd" clip-rule="evenodd" d="M61.9354 39.205L31.9304 139.67L103.677 160.77L133.516 59.8755L61.9354 39.205ZM61.3575 38.0203L31.1744 140.082L104.088 161.525L134.272 59.4638L61.3575 38.0203Z" fill="#333333"/>
<path d="M56.4327 40.3413L137.01 64.1702L106.598 167.032L34.763 145.786C29.9312 144.357 27.1726 139.281 28.6015 134.45L56.4327 40.3413Z" fill="white"/>
<path fill-rule="evenodd" clip-rule="evenodd" d="M136.755 65.0332L57.2427 41.5644L29.5983 134.45C28.2171 139.12 30.2165 143.415 34.8871 144.796L106.598 166.111L136.755 65.0332ZM137.01 64.1702L56.4327 40.3413L28.6015 134.45C27.1726 139.281 29.9312 144.357 34.763 145.786L106.598 167.032L137.01 64.1702Z" fill="#333333"/>
<path d="M128.669 61.7035L144.859 66.4914L116.812 161.329C115.515 165.714 110.909 168.218 106.524 166.921C102.138 165.624 99.3249 160.926 100.622 156.541L128.669 61.7035Z" fill="white"/>
<path fill-rule="evenodd" clip-rule="evenodd" d="M144.859 66.4914L144.275 66.3189L116.229 161.157C115.027 165.22 110.759 167.539 106.696 166.338C102.633 165.136 100.313 160.869 101.515 156.806L129.562 61.9677L128.669 61.7035L100.622 156.541C99.3249 160.926 102.138 165.624 106.524 166.921C110.909 168.218 115.515 165.714 116.812 161.329L144.859 66.4914Z" fill="#333333"/>
<path d="M135.978 63.908L139.256 65.0332L140.418 61.6888L143.243 62.4958L142.255 65.8407L144.231 66.6013L116.251 161.183C115.854 162.524 115.103 163.732 114.076 164.681C113.558 165.16 112.868 165.411 112.162 165.377L110.109 165.276C109.342 165.239 108.639 164.839 108.215 164.199C107.747 163.493 107.561 162.637 107.693 161.8L108.444 157.059L135.978 63.908Z" fill="#BFCBF7"/>
<path fill-rule="evenodd" clip-rule="evenodd" d="M143.57 62.3328L142.987 62.1604L114.271 159.259C113.556 161.678 111.016 163.059 108.597 162.344C106.178 161.628 104.797 159.088 105.513 156.669L134.228 59.5703L133.645 59.3977L104.929 156.497C104.119 159.237 105.684 162.116 108.424 162.927C111.165 163.737 114.044 162.173 114.854 159.432L143.57 62.3328Z" fill="#333333"/>
<path d="M137.693 57.5541L141.418 58.7706L112.296 156.948C112 157.949 110.948 158.519 109.947 158.223C108.947 157.928 108.375 156.877 108.671 155.876L137.693 57.5541Z" fill="#BFCBF7"/>
<path fill-rule="evenodd" clip-rule="evenodd" d="M137.693 57.5541L108.671 155.876C108.375 156.877 108.947 157.928 109.947 158.223C110.948 158.519 112 157.949 112.296 156.948L141.418 58.7706L137.693 57.5541ZM138.099 58.3266L109.254 156.048C109.054 156.727 109.441 157.44 110.12 157.64C110.799 157.841 111.512 157.454 111.713 156.775L140.667 59.165L138.099 58.3266Z" fill="#333333"/>
<path fill-rule="evenodd" clip-rule="evenodd" d="M140.611 61.4929L143.558 62.3567L143.384 62.9392L140.447 62.0436L140.611 61.4929Z" fill="#333333"/>
<path fill-rule="evenodd" clip-rule="evenodd" d="M142.309 65.692L144.859 66.4914L144.677 67.0718L142.127 66.2724L142.309 65.692Z" fill="#333333"/>
<path d="M58.3456 49.3411C58.7981 47.811 60.4053 46.9375 61.9354 47.3899L120.165 64.6102C121.696 65.0627 122.569 66.6699 122.117 68.1999L116.754 86.3314C116.302 87.8614 114.695 88.735 113.165 88.2825L54.9347 71.0622C53.4046 70.6097 52.5311 69.0026 52.9835 67.4725L58.3456 49.3411Z" fill="#BFCBF7"/>
<path fill-rule="evenodd" clip-rule="evenodd" d="M119.993 65.1934L61.7629 47.9732C60.555 47.616 59.2861 48.3056 58.9289 49.5135L53.5668 67.645C53.2096 68.8529 53.8992 70.1217 55.1072 70.479L113.337 87.6992C114.545 88.0565 115.814 87.3668 116.171 86.1589L121.533 68.0274C121.891 66.8195 121.201 65.5507 119.993 65.1934ZM61.9354 47.3899C60.4053 46.9375 58.7981 47.811 58.3456 49.3411L52.9835 67.4725C52.5311 69.0026 53.4046 70.6097 54.9347 71.0622L113.165 88.2825C114.695 88.735 116.302 87.8614 116.754 86.3314L122.117 68.1999C122.569 66.6699 121.696 65.0627 120.165 64.6102L61.9354 47.3899Z" fill="#333333"/>
<path d="M45.1023 95.4489C45.5548 93.9188 47.162 93.0453 48.692 93.4978L82.652 103.541C84.1821 103.993 85.0556 105.6 84.6031 107.13L77.2765 131.905C76.824 133.435 75.2169 134.308 73.6868 133.856L39.7268 123.813C38.1968 123.36 37.3232 121.753 37.7757 120.223L45.1023 95.4489Z" fill="#BFCBF7"/>
<path fill-rule="evenodd" clip-rule="evenodd" d="M82.4795 104.124L48.5196 94.081C47.3116 93.7238 46.0428 94.4134 45.6856 95.6214L38.3589 120.396C38.0017 121.604 38.6914 122.872 39.8993 123.23L73.8593 133.272C75.0672 133.63 76.3361 132.94 76.6933 131.732L84.0199 106.958C84.3771 105.75 83.6875 104.481 82.4795 104.124ZM48.692 93.4978C47.162 93.0453 45.5548 93.9188 45.1023 95.4489L37.7757 120.223C37.3232 121.753 38.1968 123.36 39.7268 123.813L73.6868 133.856C75.2169 134.308 76.824 133.435 77.2765 131.905L84.6031 107.13C85.0556 105.6 84.1821 103.993 82.652 103.541L48.692 93.4978Z" fill="#333333"/>
<path fill-rule="evenodd" clip-rule="evenodd" d="M91.717 87.3392L51.2286 75.1922L51.4034 74.6097L91.8918 86.7566L91.717 87.3392Z" fill="#333333"/>
<path fill-rule="evenodd" clip-rule="evenodd" d="M90.4061 91.7085L49.9178 79.5614L50.0925 78.9789L90.5809 91.1258L90.4061 91.7085Z" fill="#333333"/>
<path fill-rule="evenodd" clip-rule="evenodd" d="M89.0953 96.0776L48.6069 83.9306L48.7817 83.3481L89.2701 95.4951L89.0953 96.0776Z" fill="#333333"/>
<path fill-rule="evenodd" clip-rule="evenodd" d="M67.5403 94.3734L47.2961 88.2998L47.4709 87.7173L67.715 93.7908L67.5403 94.3734Z" fill="#333333"/>
<path fill-rule="evenodd" clip-rule="evenodd" d="M76.5115 138.885L36.0232 126.738L36.1979 126.156L76.6863 138.303L76.5115 138.885Z" fill="#333333"/>
<path fill-rule="evenodd" clip-rule="evenodd" d="M75.2007 143.255L34.7123 131.108L34.8871 130.525L75.3755 142.672L75.2007 143.255Z" fill="#333333"/>
<path fill-rule="evenodd" clip-rule="evenodd" d="M73.8898 147.624L33.4015 135.477L33.5762 134.894L74.0646 147.041L73.8898 147.624Z" fill="#333333"/>
<path fill-rule="evenodd" clip-rule="evenodd" d="M93.5208 136.014L82.2688 132.476L82.4512 131.896L93.7032 135.433L93.5208 136.014Z" fill="#333333"/>
<path fill-rule="evenodd" clip-rule="evenodd" d="M99.7551 133.165L83.4852 128.411L83.6558 127.827L99.9257 132.581L99.7551 133.165Z" fill="#333333"/>
<path fill-rule="evenodd" clip-rule="evenodd" d="M55.68 147.561L35.4358 141.488L35.6106 140.905L55.8548 146.978L55.68 147.561Z" fill="#333333"/>
<path d="M74.2253 45.6031L144.859 66.4914L117.349 159.513C115.872 164.505 110.628 167.356 105.635 165.879L44.0422 147.665L74.2253 45.6031Z" fill="#333333"/>
<path d="M70.7863 40.8086L143.57 62.3328L113.387 164.394L40.6032 142.87L70.7863 40.8086Z" fill="#333333"/>
<path d="M67.2681 36.89L141.375 58.8056L111.192 160.867L37.085 138.952L67.2681 36.89Z" fill="#333333"/>
<path d="M66.611 33.6377L138.899 55.0152L109.107 155.753L36.8192 134.376L66.611 33.6377Z" fill="#333333"/>
<path d="M61.3575 38.0203L133.868 59.4638L103.685 161.525L31.1744 140.082L61.3575 38.0203Z" fill="#333333"/>
<path d="M56.4327 40.3413L137.01 64.1702L106.591 167.027L34.763 145.786C29.9312 144.357 27.1726 139.281 28.6015 134.45L56.4327 40.3413Z" fill="#333333"/>
<path d="M128.669 61.7035L144.859 66.4914L116.812 161.329C115.515 165.714 110.909 168.218 106.524 166.921C102.138 165.624 99.3249 160.926 100.622 156.541L128.669 61.7035Z" fill="#333333"/>
<path d="M135.978 63.908L139.256 65.0332L140.418 61.6888L143.243 62.4958L142.255 65.8407L144.535 66.6009L116.556 160.824C116.127 162.27 115.328 163.58 114.24 164.625C113.637 165.204 112.817 165.5 111.984 165.44L110.089 165.303C109.332 165.249 108.644 164.847 108.225 164.215C107.75 163.499 107.562 162.631 107.696 161.782L108.444 157.059L135.978 63.908Z" fill="#333333"/>
<path d="M133.645 59.3977L143.57 62.3328L114.854 159.432C114.044 162.173 111.165 163.737 108.424 162.927C105.684 162.116 104.119 159.237 104.929 156.497L133.645 59.3977Z" fill="#333333"/>
<path d="M137.71 57.6845L141.334 58.756L112.295 156.948C111.999 157.948 110.948 158.519 109.947 158.223C108.947 157.928 108.376 156.877 108.672 155.876L137.71 57.6845Z" fill="#333333"/>
<path d="M74.2253 45.6031L144.859 66.4914L117.349 159.513C115.872 164.505 110.628 167.356 105.635 165.879L44.0422 147.665L74.2253 45.6031Z" fill="white"/>
<path fill-rule="evenodd" clip-rule="evenodd" d="M143.878 67.6631L74.4111 47.1198L44.798 147.254L105.808 165.296C110.478 166.677 115.385 164.011 116.766 159.34L143.878 67.6631ZM74.2253 45.6031L44.0422 147.665L105.635 165.879C110.628 167.356 115.872 164.505 117.349 159.513L144.859 66.4914L74.2253 45.6031Z" fill="#333333"/>
<path d="M70.7863 40.8086L143.57 62.3328L113.387 164.394L40.6032 142.87L70.7863 40.8086Z" fill="white"/>
<path fill-rule="evenodd" clip-rule="evenodd" d="M142.814 62.7436L71.1972 41.5644L41.359 142.46L112.976 163.639L142.814 62.7436ZM70.7863 40.8086L40.6032 142.87L113.387 164.394L143.57 62.3328L70.7863 40.8086Z" fill="#333333"/>
<path d="M67.2681 36.89L141.375 58.8056L111.192 160.867L37.085 138.952L67.2681 36.89Z" fill="white"/>
<path fill-rule="evenodd" clip-rule="evenodd" d="M140.62 59.2164L67.679 37.6458L37.8408 138.541L110.781 160.111L140.62 59.2164ZM67.2681 36.89L37.085 138.952L111.192 160.867L141.375 58.8056L67.2681 36.89Z" fill="#333333"/>
<path d="M66.611 33.6377L139.141 55.0772L109.335 155.967L36.8083 134.408L66.611 33.6377Z" fill="white"/>
<path fill-rule="evenodd" clip-rule="evenodd" d="M67.3481 34.7051L37.5638 133.998L108.924 155.211L138.363 55.5178L67.3481 34.7051ZM139.141 55.0772L66.611 33.6377L36.8083 134.408L109.335 155.967L139.141 55.0772Z" fill="#333333"/>
<path d="M61.3575 38.0203L134.272 59.4638L104.088 161.525L31.1744 140.082L61.3575 38.0203Z" fill="white"/>
<path fill-rule="evenodd" clip-rule="evenodd" d="M61.9354 39.205L31.9304 139.67L103.677 160.77L133.516 59.8755L61.9354 39.205ZM61.3575 38.0203L31.1744 140.082L104.088 161.525L134.272 59.4638L61.3575 38.0203Z" fill="#333333"/>
<path d="M56.4327 40.3413L137.01 64.1702L106.598 167.032L34.763 145.786C29.9312 144.357 27.1726 139.281 28.6015 134.45L56.4327 40.3413Z" fill="white"/>
<path fill-rule="evenodd" clip-rule="evenodd" d="M136.755 65.0332L57.2427 41.5644L29.5983 134.45C28.2171 139.12 30.2165 143.415 34.8871 144.796L106.598 166.111L136.755 65.0332ZM137.01 64.1702L56.4327 40.3413L28.6015 134.45C27.1726 139.281 29.9312 144.357 34.763 145.786L106.598 167.032L137.01 64.1702Z" fill="#333333"/>
<path d="M128.669 61.7035L144.859 66.4914L116.812 161.329C115.515 165.714 110.909 168.218 106.524 166.921C102.138 165.624 99.3249 160.926 100.622 156.541L128.669 61.7035Z" fill="white"/>
<path fill-rule="evenodd" clip-rule="evenodd" d="M144.859 66.4914L144.275 66.3189L116.229 161.157C115.027 165.22 110.759 167.539 106.696 166.338C102.633 165.136 100.313 160.869 101.515 156.806L129.562 61.9677L128.669 61.7035L100.622 156.541C99.3249 160.926 102.138 165.624 106.524 166.921C110.909 168.218 115.515 165.714 116.812 161.329L144.859 66.4914Z" fill="#333333"/>
<path d="M135.978 63.908L139.256 65.0332L140.418 61.6888L143.243 62.4958L142.255 65.8407L144.231 66.6013L116.251 161.183C115.854 162.524 115.103 163.732 114.076 164.681C113.558 165.16 112.868 165.411 112.162 165.377L110.109 165.276C109.342 165.239 108.639 164.839 108.215 164.199C107.747 163.493 107.561 162.637 107.693 161.8L108.444 157.059L135.978 63.908Z" fill="#BFCBF7"/>
<path fill-rule="evenodd" clip-rule="evenodd" d="M143.57 62.3328L142.987 62.1604L114.271 159.259C113.556 161.678 111.016 163.059 108.597 162.344C106.178 161.628 104.797 159.088 105.513 156.669L134.228 59.5703L133.645 59.3977L104.929 156.497C104.119 159.237 105.684 162.116 108.424 162.927C111.165 163.737 114.044 162.173 114.854 159.432L143.57 62.3328Z" fill="#333333"/>
<path d="M137.693 57.5541L141.418 58.7706L112.296 156.948C112 157.949 110.948 158.519 109.947 158.223C108.947 157.928 108.375 156.877 108.671 155.876L137.693 57.5541Z" fill="#BFCBF7"/>
<path fill-rule="evenodd" clip-rule="evenodd" d="M137.693 57.5541L108.671 155.876C108.375 156.877 108.947 157.928 109.947 158.223C110.948 158.519 112 157.949 112.296 156.948L141.418 58.7706L137.693 57.5541ZM138.099 58.3266L109.254 156.048C109.054 156.727 109.441 157.44 110.12 157.64C110.799 157.841 111.512 157.454 111.713 156.775L140.667 59.165L138.099 58.3266Z" fill="#333333"/>
<path fill-rule="evenodd" clip-rule="evenodd" d="M140.611 61.4929L143.558 62.3567L143.384 62.9392L140.447 62.0436L140.611 61.4929Z" fill="#333333"/>
<path fill-rule="evenodd" clip-rule="evenodd" d="M142.309 65.692L144.859 66.4914L144.677 67.0718L142.127 66.2724L142.309 65.692Z" fill="#333333"/>
<path d="M58.3456 49.3411C58.7981 47.811 60.4053 46.9375 61.9354 47.3899L120.165 64.6102C121.696 65.0627 122.569 66.6699 122.117 68.1999L116.754 86.3314C116.302 87.8614 114.695 88.735 113.165 88.2825L54.9347 71.0622C53.4046 70.6097 52.5311 69.0026 52.9835 67.4725L58.3456 49.3411Z" fill="#BFCBF7"/>
<path fill-rule="evenodd" clip-rule="evenodd" d="M119.993 65.1934L61.7629 47.9732C60.555 47.616 59.2861 48.3056 58.9289 49.5135L53.5668 67.645C53.2096 68.8529 53.8992 70.1217 55.1072 70.479L113.337 87.6992C114.545 88.0565 115.814 87.3668 116.171 86.1589L121.533 68.0274C121.891 66.8195 121.201 65.5507 119.993 65.1934ZM61.9354 47.3899C60.4053 46.9375 58.7981 47.811 58.3456 49.3411L52.9835 67.4725C52.5311 69.0026 53.4046 70.6097 54.9347 71.0622L113.165 88.2825C114.695 88.735 116.302 87.8614 116.754 86.3314L122.117 68.1999C122.569 66.6699 121.696 65.0627 120.165 64.6102L61.9354 47.3899Z" fill="#333333"/>
<path d="M45.1023 95.4489C45.5548 93.9188 47.162 93.0453 48.692 93.4978L82.652 103.541C84.1821 103.993 85.0556 105.6 84.6031 107.13L77.2765 131.905C76.824 133.435 75.2169 134.308 73.6868 133.856L39.7268 123.813C38.1968 123.36 37.3232 121.753 37.7757 120.223L45.1023 95.4489Z" fill="#BFCBF7"/>
<path fill-rule="evenodd" clip-rule="evenodd" d="M82.4795 104.124L48.5196 94.081C47.3116 93.7238 46.0428 94.4134 45.6856 95.6214L38.3589 120.396C38.0017 121.604 38.6914 122.872 39.8993 123.23L73.8593 133.272C75.0672 133.63 76.3361 132.94 76.6933 131.732L84.0199 106.958C84.3771 105.75 83.6875 104.481 82.4795 104.124ZM48.692 93.4978C47.162 93.0453 45.5548 93.9188 45.1023 95.4489L37.7757 120.223C37.3232 121.753 38.1968 123.36 39.7268 123.813L73.6868 133.856C75.2169 134.308 76.824 133.435 77.2765 131.905L84.6031 107.13C85.0556 105.6 84.1821 103.993 82.652 103.541L48.692 93.4978Z" fill="#333333"/>
<path fill-rule="evenodd" clip-rule="evenodd" d="M91.717 87.3392L51.2286 75.1922L51.4034 74.6097L91.8918 86.7566L91.717 87.3392Z" fill="#333333"/>
<path fill-rule="evenodd" clip-rule="evenodd" d="M90.4061 91.7085L49.9178 79.5614L50.0925 78.9789L90.5809 91.1258L90.4061 91.7085Z" fill="#333333"/>
<path fill-rule="evenodd" clip-rule="evenodd" d="M89.0953 96.0776L48.6069 83.9306L48.7817 83.3481L89.2701 95.4951L89.0953 96.0776Z" fill="#333333"/>
<path fill-rule="evenodd" clip-rule="evenodd" d="M67.5403 94.3734L47.2961 88.2998L47.4709 87.7173L67.715 93.7908L67.5403 94.3734Z" fill="#333333"/>
<path fill-rule="evenodd" clip-rule="evenodd" d="M76.5115 138.885L36.0232 126.738L36.1979 126.156L76.6863 138.303L76.5115 138.885Z" fill="#333333"/>
<path fill-rule="evenodd" clip-rule="evenodd" d="M75.2007 143.255L34.7123 131.108L34.8871 130.525L75.3755 142.672L75.2007 143.255Z" fill="#333333"/>
<path fill-rule="evenodd" clip-rule="evenodd" d="M73.8898 147.624L33.4015 135.477L33.5762 134.894L74.0646 147.041L73.8898 147.624Z" fill="#333333"/>
<path fill-rule="evenodd" clip-rule="evenodd" d="M93.5208 136.014L82.2688 132.476L82.4512 131.896L93.7032 135.433L93.5208 136.014Z" fill="#333333"/>
<path fill-rule="evenodd" clip-rule="evenodd" d="M99.7551 133.165L83.4852 128.411L83.6558 127.827L99.9257 132.581L99.7551 133.165Z" fill="#333333"/>
<path fill-rule="evenodd" clip-rule="evenodd" d="M55.68 147.561L35.4358 141.488L35.6106 140.905L55.8548 146.978L55.68 147.561Z" fill="#333333"/>
<path fill-rule="evenodd" clip-rule="evenodd" d="M82.4795 104.124L48.5196 94.081C47.3116 93.7238 46.0428 94.4134 45.6856 95.6214L38.3589 120.396C38.0017 121.604 38.6914 122.872 39.8993 123.23L73.8593 133.272C75.0672 133.63 76.3361 132.94 76.6933 131.732L84.0199 106.958C84.3771 105.75 83.6875 104.481 82.4795 104.124Z" fill="#BFCBF7"/>
<path fill-rule="evenodd" clip-rule="evenodd" d="M82.4795 104.124L48.5196 94.081C47.3116 93.7238 46.0428 94.4134 45.6856 95.6214L38.3589 120.396C38.0017 121.604 38.6914 122.872 39.8993 123.23L73.8593 133.272C75.0672 133.63 76.3361 132.94 76.6933 131.732L84.0199 106.958C84.3771 105.75 83.6875 104.481 82.4795 104.124Z" fill="#BFCBF7"/>
<path fill-rule="evenodd" clip-rule="evenodd" d="M48.5196 94.081L82.4795 104.124C83.6875 104.481 84.3771 105.75 84.0199 106.958L76.6933 131.732C76.3361 132.94 75.0672 133.63 73.8593 133.272L39.8993 123.23C38.6914 122.872 38.0017 121.604 38.3589 120.396L45.6856 95.6214C46.0428 94.4134 47.3116 93.7238 48.5196 94.081Z" fill="#BFCBF7"/>
<path d="M82.4795 104.124L48.5196 94.081C47.3116 93.7238 46.0428 94.4134 45.6856 95.6214L38.3589 120.396C38.0017 121.604 38.6914 122.872 39.8993 123.23L73.8593 133.272C75.0672 133.63 76.3361 132.94 76.6933 131.732L84.0199 106.958C84.3771 105.75 83.6875 104.481 82.4795 104.124Z" fill="#BFCBF7"/>
<path d="M119.993 65.1934L61.7629 47.9732C60.555 47.616 59.2861 48.3056 58.9289 49.5135L53.5668 67.645C53.2096 68.8529 53.8992 70.1217 55.1072 70.479L113.337 87.6992C114.545 88.0565 115.814 87.3668 116.171 86.1589L121.533 68.0274C121.891 66.8195 121.201 65.5507 119.993 65.1934Z" fill="#BFCBF7"/>
</svg>
