<svg width="18" height="18" viewBox="0 0 18 18" fill="none" xmlns="http://www.w3.org/2000/svg">
<path d="M3 0.5H15C16.3807 0.5 17.5 1.61929 17.5 3V15C17.5 16.3807 16.3807 17.5 15 17.5H3C1.61929 17.5 0.5 16.3807 0.5 15V3C0.5 1.61929 1.61929 0.5 3 0.5Z" fill="#188AE2"/>
<path d="M3 0.5H15C16.3807 0.5 17.5 1.61929 17.5 3V15C17.5 16.3807 16.3807 17.5 15 17.5H3C1.61929 17.5 0.5 16.3807 0.5 15V3C0.5 1.61929 1.61929 0.5 3 0.5Z" stroke="#E6E6E9"/>
<path d="M6.64582 13.5417L3.08982 9.9857L1.87891 11.1881L6.64582 15.955L16.8789 5.72192L15.6765 4.51953L6.64582 13.5417Z" fill="white"/>
</svg>
